<?xml version="1.0" encoding="UTF-8"?>
<!DOCTYPE svg PUBLIC "-//W3C//DTD SVG 1.1//EN" "http://www.w3.org/Graphics/SVG/1.1/DTD/svg11.dtd">
<!-- Creator: CorelDRAW 2018 -->
<svg xmlns="http://www.w3.org/2000/svg" xml:space="preserve" width="90px" height="98px" version="1.1" style="shape-rendering:geometricPrecision; text-rendering:geometricPrecision; image-rendering:optimizeQuality; fill-rule:evenodd; clip-rule:evenodd"
viewBox="0 0 90 98"
 xmlns:xlink="http://www.w3.org/1999/xlink">
 <defs>
  <style type="text/css">
   <![CDATA[
    .fil1 {fill:black}
    .fil0 {fill:#969696}
    .fil2 {fill:#FEC707}
   ]]>
  </style>
 </defs>
 <g id="Layer_x0020_1">
  <metadata id="CorelCorpID_0Corel-Layer"/>
  <g id="_908556472">
   <path class="fil0" d="M65.04 17.06c1.3,0.69 3.14,2.04 4.38,2.97 1.42,1.08 4.54,4.18 5.57,5.46 1.08,1.35 2.23,2.72 3.12,4.23l3.7 7.49c3.43,9.19 3.18,21.05 -1.11,29.84l-1.67 3.21c-0.19,0.34 -0.43,0.71 -0.66,1.09l-3.14 4.4c-1.35,1.58 -3.01,3.46 -4.56,4.69l-9.54 6.07c-1,0.49 -4.21,1.71 -5.02,1.78l0 5.6c1.33,-0.11 5.83,-1.81 6.95,-2.33 2.8,-1.31 3.5,-1.79 6.12,-3.32 0.61,-0.36 0.81,-0.53 1.36,-0.93 2.18,-1.58 5.84,-4.45 7.48,-6.52 1.61,-2.02 1.7,-1.96 3.54,-4.5l1.47 -2.21c0.93,-1.43 2.54,-4.63 3.19,-6.27 0.41,-1.02 0.93,-2.22 1.22,-3.32 1.87,-6.94 2.1,-7.38 2.1,-15.4 0,-3.94 -0.82,-7.88 -1.95,-11.53 -1.05,-3.42 -3.54,-9.07 -5.8,-12.05l-3.37 -4.3c-0.92,-1.09 -3.82,-3.98 -4.95,-4.85 -3.81,-2.92 -4.24,-3.21 -8.43,-5.43l0 6.13 0 0z"/>
   <path class="fil0" d="M0.46 49.09c0,7.6 0.64,11.97 3.32,18.72 0.4,0.99 0.93,2.19 1.44,3.12l4.54 7.19c0.23,0.3 0.29,0.38 0.54,0.68 1.17,1.42 3.11,3.61 4.47,4.81 0.33,0.29 0.37,0.26 0.69,0.53 0.5,0.42 0.63,0.63 1.2,1.08 2.15,1.66 4.67,3.55 7.14,4.76 0.59,0.3 0.91,0.52 1.49,0.78 1.83,0.83 6.79,3.09 8.77,3.13l0 -5.42c-0.83,-0.4 -2.07,-0.69 -2.97,-1.05l-1.87 -0.73c-1.78,-0.84 -4.73,-2.33 -6.31,-3.52 -0.42,-0.32 -0.72,-0.5 -1.13,-0.8 -1.9,-1.4 -5.47,-4.59 -6.69,-6.24 -3.48,-4.66 -4.49,-5.84 -6.71,-11.34 -0.79,-1.98 -1.39,-4.07 -1.84,-6.38 -0.29,-1.47 -0.83,-5.91 -0.83,-7.57 0,-1.26 0.17,-1.74 0.17,-2.95 0.01,-2.03 1.03,-6.74 1.56,-8.45 1.76,-5.75 4.04,-9.56 7.57,-13.95 2.19,-2.72 6.82,-6.77 9.95,-8.43l0 -6.13c-3.43,1.82 -6.42,3.54 -9.32,6.26l-2.01 1.84c-2.56,2.56 -3.22,3.58 -5.42,6.48l-2 3.22c-0.07,0.11 -0.11,0.19 -0.2,0.35 -1.63,2.99 -3.12,6.4 -3.98,9.68 -0.79,3.06 -1.57,7.03 -1.57,10.33l0 0z"/>
   <path class="fil1" d="M56.81 51.19c1.17,0 3.18,1.17 3.56,3.1 0.84,4.21 -5.87,5.03 -6.32,0.53 -0.09,-0.81 0.31,-1.88 0.71,-2.36 0.34,-0.42 1.43,-1.27 2.05,-1.27l0 0zm-2.45 -7.35c0,-3.52 5.6,-3.68 5.6,0.17 0,0.92 -0.36,1.45 -0.82,1.98 -1.24,1.39 -2.44,0.88 -3.76,-0.19 -0.4,-0.32 -1.02,-1.36 -1.02,-1.96l0 0zm-5.25 0.17c0,3.55 2.82,4.56 3.33,5.25 -1.45,0.77 -2.37,1.17 -3.32,2.81 -1.78,3.06 -0.57,6.33 2.27,8.22 2.99,1.99 8.26,1.81 11.43,0.06 5.29,-2.92 3.77,-10.52 -0.93,-11.61 0.7,-0.96 3.33,-1.43 3.33,-5.6 0,-3.41 -3.5,-5.78 -7.01,-5.78 -2.77,0 -4.45,0.1 -6.75,1.82 -0.67,0.5 -1.19,1.17 -1.61,1.89 -0.47,0.8 -0.74,1.73 -0.74,2.94l0 0z"/>
   <path class="fil1" d="M32.49 44.36l0 7.18 -5.08 0c0.16,-0.7 0.93,-1.71 1.33,-2.35 1.37,-2.24 3.2,-6.02 3.7,-6.8 0.22,-0.35 0.07,-0.12 0.22,-0.3 0,1 -0.17,1.21 -0.17,2.27l0 0zm-10.5 8.23l0 3.15 10.5 0 0 5.6 5.25 0 0 -5.6 2.8 0 0 -4.2 -2.8 0 0 -13.83 -6.83 0 -7.95 12.88c-0.34,0.53 -0.97,1.37 -0.97,2l0 0z"/>
   <path class="fil0" d="M39.66 89.51c0,1.4 0.11,5.11 -0.18,6.3 -0.16,0.66 -0.13,0.46 -0.78,0.79l-0.34 0.19c-0.02,0.02 -0.07,0.05 -0.1,0.08l3.33 0c-0.47,-0.65 -0.29,-0.16 -1.05,-0.53 -0.44,-1.88 -0.18,-4.64 -0.18,-6.83 0.11,0.13 0.1,0.09 0.23,0.3l3.1 7.06 0.52 0c0.22,-0.92 0.47,-1.19 0.8,-2 0.29,-0.7 2.3,-5.42 2.7,-5.88l-0.05 6.77c-0.16,0.71 -0.03,0.52 -0.87,0.88l3.72 0.23 -0.9 -0.5c-0.1,-0.06 -0.21,-0.13 -0.32,-0.2l0 -8.05 1.22 -0.7 -3.15 0c-0.08,1.02 -2.71,5.78 -2.8,6.82 -0.77,-0.57 -2.67,-5.6 -3.32,-6.82l-2.75 0.12c0.58,0.25 1.17,-0.04 1.17,1.97l0 0z"/>
   <path class="fil1" d="M41.24 58.01c0,5.34 6.47,4.3 6.47,0.7 0,-1.45 -0.26,-2.92 -1.9,-3.52 -2.51,-0.93 -4.57,0.82 -4.57,2.82l0 0z"/>
   <path class="fil2" d="M64.86 69.91l-2.97 0c0.33,0.45 1.7,1.6 2.28,1.76l-0.88 3.15c0.79,-0.22 2.53,-1.58 2.62,-1.58 1.01,0 1.99,1.31 2.98,1.58 -0.76,-3.26 -1.68,-2.47 0.25,-3.96 0.42,-0.32 0.88,-0.58 1.15,-0.95l-2.98 0c-0.19,-0.41 -0.34,-0.96 -0.52,-1.4 -0.19,-0.48 -0.48,-0.98 -0.53,-1.57 -0.46,0.34 -0.51,0.74 -0.75,1.35 -0.25,0.65 -0.35,1.07 -0.65,1.62z"/>
   <path class="fil2" d="M33.19 69.91l-2.98 0c0.33,0.45 1.71,1.6 2.28,1.76 -0.06,0.65 -0.64,2.66 -0.88,3.15 0.66,-0.16 0.93,-0.45 1.47,-0.81 0.29,-0.19 0.4,-0.26 0.63,-0.42 0.16,-0.1 0.12,-0.07 0.31,-0.21 0.05,-0.03 0.17,-0.13 0.2,-0.15l0.19 -0.17c0.46,0.31 0.88,0.59 1.37,0.92 0.47,0.32 0.86,0.68 1.43,0.84 -0.77,-3.34 -1.7,-2.47 0.28,-3.93 0.46,-0.34 0.83,-0.54 1.12,-0.98l-2.97 0c-0.18,-0.76 -0.76,-1.72 -1.05,-2.97 -0.55,0.4 -0.47,0.67 -0.73,1.37 -0.17,0.48 -0.43,1.15 -0.67,1.6l0 0z"/>
   <path class="fil2" d="M22.69 69.91l-2.98 0c0.32,0.48 1.83,1.63 2.28,1.93l-0.88 2.98c0.91,-0.25 2.12,-1.58 2.8,-1.58 0.48,0 1.83,1.31 2.8,1.58 -0.42,-0.88 -0.63,-2.1 -1.05,-2.98l2.45 -1.93 -2.97 0c-0.54,-1.01 -0.74,-2.49 -1.4,-2.97l-1.05 2.97z"/>
   <path class="fil2" d="M54.36 69.91l-2.97 0c0.3,0.45 0.12,0.22 0.52,0.54l1.75 1.39c-0.31,0.65 -0.68,2.17 -0.87,2.98 0.57,-0.16 0.96,-0.52 1.43,-0.84 0.49,-0.33 0.91,-0.61 1.37,-0.92l2.62 1.76c-0.01,-0.72 -0.62,-2.46 -0.87,-2.98 0.39,-0.26 0.8,-0.6 1.2,-0.9 0.39,-0.3 0.99,-0.67 1.25,-1.03l-2.98 0c-0.7,-1.33 -0.73,-2.49 -1.4,-2.97 -0.12,0.53 -0.26,0.93 -0.47,1.45 -0.21,0.53 -0.37,1.08 -0.58,1.52l0 0z"/>
   <path class="fil2" d="M43.86 69.91l-2.97 0c0.39,0.59 0.47,0.5 0.99,0.93 2.18,1.81 0.67,0.83 0.41,3.98 0.53,-0.29 2.34,-1.36 2.62,-1.76 0.48,0.33 0.88,0.58 1.4,0.89 0.49,0.29 0.86,0.57 1.4,0.87 -0.09,-1.13 -0.78,-2.03 -0.87,-3.15 0.48,-0.14 0.63,-0.31 1.17,-0.76 0.59,-0.48 0.78,-0.52 1.1,-1l-2.97 0 -1 -2.67c-0.26,-0.42 -0.03,-0.07 -0.23,-0.3l-1.05 2.97 0 0z"/>
   <path class="fil0" d="M55.76 16.19l1.23 0 0.35 -3.33c0,1.21 0.67,2.18 0.7,3.33l1.05 0c0.42,-0.89 0.59,-1.83 0.85,-2.66l0.37 -0.84c0,1.43 0.18,2.2 0.18,3.5l1.22 0c0,-2.04 -0.17,-3.41 -0.17,-5.43l-1.75 0c-0.25,0.51 -0.86,2.44 -0.88,3.15l-0.35 0c-0.02,-1.21 -0.6,-1.99 -0.7,-3.15l-1.75 0c-0.24,1.03 -0.09,1.48 -0.18,2.62 -0.07,0.92 -0.17,1.62 -0.17,2.81l0 0z"/>
   <path class="fil0" d="M41.24 16.19l1.22 0 0.35 -3.33c0,1.21 0.68,2.18 0.7,3.33l1.05 0c0.59,-1.22 0.74,-2.8 1.23,-3.5 0,1.43 0.17,2.2 0.17,3.5l1.23 0c0,-2.04 -0.18,-3.41 -0.18,-5.43l-1.75 0c-0.24,0.51 -0.86,2.44 -0.87,3.15l-0.35 0c-0.03,-1.21 -0.61,-1.99 -0.7,-3.15l-1.75 0c-0.24,1.03 -0.09,1.48 -0.19,2.62 -0.07,0.92 -0.16,1.62 -0.16,2.81l0 0z"/>
   <path class="fil0" d="M33.54 13.21l0 -1.4 0.7 0c0.34,0 0.7,0.31 0.7,0.52 0,0.68 -0.71,0.86 -1.4,0.88l0 0zm-1.23 2.98l1.23 0 0 -2.1c0.68,0.05 0.85,0.09 1.08,0.66 0.1,0.23 0.29,1.06 0.32,1.44l1.4 0c-0.13,-1.52 -0.58,-1.92 -1.05,-2.63 1.38,-0.37 1.21,-2.8 -0.7,-2.8l-2.28 0 0 5.43 0 0z"/>
   <path class="fil0" d="M50.51 14.09c0,2.98 4.38,2.67 4.38,0.17l0 -3.5 -1.23 0c0,2 0.27,3.19 -0.52,4.38l-0.88 0c-0.79,-1.19 -0.52,-2.38 -0.52,-4.38l-1.23 0 0 3.33 0 0z"/>
   <polygon class="fil0" points="37.21,16.19 40.71,16.19 40.71,15.14 38.44,15.14 38.44,13.91 40.54,13.91 40.54,12.86 38.44,12.86 38.44,11.81 40.54,11.81 40.54,10.76 37.21,10.76 "/>
   <path class="fil0" d="M30.04 13.21l-1.05 0 0 -1.4c0.83,0 2.03,0.08 1.05,1.4zm-2.28 2.98l1.23 0 0 -1.93c1.41,0 2.62,-0.02 2.62,-1.93 0,-1.95 -2.34,-1.57 -3.85,-1.57l0 5.43 0 0z"/>
   <path class="fil0" d="M40.71 3.94c0,-0.47 0.19,-1.06 0.37,-1.38 0.48,-0.85 2.96,-1.72 2.96,1.73 0,2.19 -3.33,2.17 -3.33,-0.35zm1.36 -2.8l0.73 0c0.63,0.07 1.22,0.35 1.55,0.73 0.68,0.78 1.51,4.69 -2.24,4.69 -1.31,0 -2.31,-1.47 -2.23,-2.76 0.11,-1.77 1.13,-2.53 2.19,-2.66l0 0z"/>
   <path class="fil0" d="M50.51 2.19c0.54,0.38 0.72,1.41 0.88,2.1l-1.4 0c0.18,-0.78 0.5,-1.22 0.52,-2.1l0 0zm-2.1 4.37l0.88 0c0.04,-0.55 0.33,-1.34 0.52,-1.75l1.75 0c0.2,0.41 0.48,1.2 0.53,1.75l0.87 0 -1.77 -5.42 -1.03 0c-0.07,0.83 -0.6,1.98 -0.85,2.64 -0.31,0.83 -0.7,1.94 -0.9,2.78l0 0z"/>
   <path class="fil1" d="M55.24 27.56c1.8,0 1.8,3.5 0,3.5 -0.59,0 -0.8,-0.17 -1.03,-0.54 -0.6,-0.97 -0.43,-2.96 1.03,-2.96zm-2.1 1.75c0,0.55 0.17,1.16 0.41,1.51 0.51,0.74 1.11,0.77 1.86,0.77 2.28,0 2.87,-4.55 -0.35,-4.55 -1.16,0 -1.92,1.13 -1.92,2.27z"/>
   <path class="fil1" d="M45.96 27.74l0.18 0c0,0.64 0.31,1.48 0.52,1.92l-1.22 0c0.21,-0.44 0.52,-1.28 0.52,-1.92l0 0zm-1.75 3.85c0.39,-0.01 0.91,0.3 1.05,-1.4l1.58 0c0.13,0.56 0.3,0.76 0.35,1.4l0.7 0c-0.08,-0.93 -1.11,-3.3 -1.4,-4.55l-0.88 0c-0.34,1.47 -1.04,3.03 -1.4,4.55z"/>
   <path class="fil1" d="M35.29 27.74l0.17 0c0,0.64 0.31,1.48 0.53,1.92l-1.23 0c0.21,-0.44 0.53,-1.28 0.53,-1.92l0 0zm-1.75 3.85c0.38,-0.01 0.91,0.3 1.05,-1.4l1.57 0c0.13,0.56 0.3,0.76 0.35,1.4l0.7 0c-0.07,-0.93 -1.11,-3.3 -1.4,-4.55l-0.87 0c-0.35,1.47 -1.05,3.03 -1.4,4.55z"/>
   <path class="fil1" d="M26.89 27.74l0.17 0c0,0.64 0.31,1.48 0.53,1.92l-1.23 0c0.21,-0.44 0.53,-1.28 0.53,-1.92l0 0zm-1.75 3.85c0.71,-0.02 0.54,0.13 0.82,-0.4 0.09,-0.16 0.21,-0.77 0.23,-1l1.57 0c0.13,0.56 0.3,0.76 0.35,1.4l0.7 0c-0.08,-0.93 -1.11,-3.3 -1.4,-4.55l-0.87 0c-0.35,1.47 -1.05,3.03 -1.4,4.55z"/>
   <polygon class="fil0" points="48.24,16.19 49.46,16.19 49.46,10.76 48.24,10.76 "/>
   <polygon class="fil1" points="58.39,31.59 61.01,31.59 61.01,31.06 59.09,31.06 59.09,29.49 60.84,29.49 60.84,28.96 59.09,28.96 59.09,27.56 61.01,27.56 61.01,27.04 58.39,27.04 "/>
   <path class="fil1" d="M50.86 32.11l0 0.35c-1.06,0.02 -0.51,-0.11 -0.7,0.35 0.96,0 1.61,0.1 0.95,-1.11 -0.02,-0.02 -0.06,-0.07 -0.07,-0.11 0.73,0 0.7,0.07 1.22,-0.18 -0.25,-0.96 -0.1,-0.35 -1.22,-0.35 -2.04,0 -2.15,-3.5 0.17,-3.5 0.87,0 0.79,0.63 1.05,-0.35 -1.21,-0.68 -3.66,0.19 -3.43,2.39 0.08,0.74 0.39,1.24 0.85,1.6 0.57,0.43 0.46,0.09 0.92,0.63 0.28,0.35 -0.53,-0.03 0.26,0.28l0 0z"/>
   <path class="fil1" d="M30.74 31.59c0.94,0 0.75,-0.07 1.05,-0.87 0.15,-0.38 0.26,-0.69 0.41,-1.17 0.29,-0.87 0.62,-1.67 0.81,-2.51 -0.97,0.02 -0.69,0.03 -1.5,2.52 -0.09,0.26 -0.08,0.28 -0.18,0.52l-0.24 0.46 -0.88 -2.97c-0.25,-0.59 -0.08,-0.52 -0.87,-0.53l1.4 4.55 0 0z"/>
   <path class="fil0" d="M36.86 6.56l3.15 0c-0.04,-0.49 0.01,-0.7 -0.52,-0.7l-1.93 0 0 -4.72 -0.7 0 0 5.42z"/>
   <path class="fil1" d="M62.24 28.26l0 0.53c0.64,0.43 1,0.83 1.93,1.05 0,2.6 -1.7,0.06 -2.11,1.57 2.39,0.56 2.8,0 2.8,-1.75 -2.07,-1.39 -1.92,-0.52 -1.92,-1.92 1.52,-0.37 0.6,-0.1 1.75,0 -0.07,-0.79 -0.02,-0.7 -1.23,-0.7 -0.81,0 -1.22,0.4 -1.22,1.22l0 0z"/>
   <path class="fil0" d="M47.01 4.46c0,0.6 -0.13,0.68 -0.17,1.23 -1.06,0.24 -1.49,-0.13 -1.58,0.87 2.98,0 2.45,-0.35 2.45,-5.42l-0.7 0 0 3.32z"/>
   <polygon class="fil1" points="38.26,31.59 40.89,31.59 40.89,31.06 38.96,31.06 38.96,27.04 38.26,27.04 "/>
   <polygon class="fil1" points="42.11,31.59 42.81,31.59 42.81,27.04 42.11,27.04 "/>
   <path class="fil1" d="M54.36 26.86c1.46,-0.34 1.65,0.57 1.75,-0.7 -1.33,0.31 -1.75,-0.51 -1.75,0.7z"/>
  </g>
 </g>
</svg>
